Coordinates
version=1
nRows=9
nColumns=63
inDegrees=yes

Units are S.I. units (second, meters, Newtons, ...)
If the header above contains a line with 'inDegrees', this indicates whether rotational values are in degrees (yes) or radians (no).

endheader
time	pelvis_tilt	pelvis_list	pelvis_rotation	pelvis_tx	pelvis_ty	pelvis_tz	hip_flexion_r	hip_adduction_r	hip_rotation_r	knee_angle_r	knee_angle_r_beta	ankle_angle_r	subtalar_angle_r	mtp_angle_r	hip_flexion_l	hip_adduction_l	hip_rotation_l	knee_angle_l	knee_angle_l_beta	ankle_angle_l	subtalar_angle_l	mtp_angle_l	L5_S1_Flex_Ext	L5_S1_Lat_Bending	L5_S1_axial_rotation	L4_L5_Flex_Ext	L4_L5_Lat_Bending	L4_L5_axial_rotation	L3_L4_Flex_Ext	L3_L4_Lat_Bending	L3_L4_axial_rotation	L2_L3_Flex_Ext	L2_L3_Lat_Bending	L2_L3_axial_rotation	L1_L2_Flex_Ext	L1_L2_Lat_Bending	L1_L2_axial_rotation	L1_T12_Flex_Ext	L1_T12_Lat_Bending	L1_T12_axial_rotation	Abs_r3	Abs_r2	Abs_r1	Abs_t1	Abs_t2	neck_flexion	neck_bending	neck_rotation	arm_flex_r	arm_add_r	arm_rot_r	elbow_flex_r	pro_sup_r	wrist_flex_r	wrist_dev_r	arm_flex_l	arm_add_l	arm_rot_l	elbow_flex_l	pro_sup_l	wrist_flex_l	wrist_dev_l
      7.72500000	    -50.64047208	     -5.23917384	      3.04433378	     -0.37217303	      1.11615427	      0.05061188	    100.13576436	     -7.96572931	     -7.45481532	     67.55436944	      1.17904617	      8.47385156	      5.05338594	      0.00000000	    101.59687074	     -7.52917838	      5.05060946	    103.88727834	      1.81317506	     15.25064700	     13.53461902	      0.00000000	     -0.09330063	      0.47934130	      0.31992112	     -0.17326860	      0.63752393	      0.33991619	     -0.15328360	      1.16547043	      0.33991619	     -0.10663329	      1.16547043	      0.27993098	     -0.08663896	      0.97747278	      0.25993591	     -0.05331198	      0.74249967	      0.23994084	     -0.66643706	      5.42240464	      1.77930527	      0.00000000	      0.00000000	      0.00000000	      0.00000000	      0.00000000	     71.95524633	    -15.71516455	     13.36633549	     35.52060512	     51.69937328	      0.00000000	      5.00000014	     69.95708122	     -6.48843079	     15.25425976	     35.99718518	     51.84793497	      0.00000000	      5.00000014
      7.73300000	    -50.65485381	     -5.02858629	      3.35431946	     -0.37194822	      1.11626749	      0.05024528	     99.12954555	     -8.15809979	     -7.47620124	     66.05544011	      1.15288492	      8.07487897	      5.15254068	      0.00000000	    102.43312343	     -7.21697334	      4.99627614	    105.00200365	      1.83263068	     15.54418529	     13.58218915	      0.00000000	     -0.09410359	      0.44888089	      0.24980960	     -0.17475977	      0.59701159	      0.26542270	     -0.15460278	      1.09140900	      0.26542270	     -0.10755099	      1.09140900	      0.21858340	     -0.08738459	      0.91535792	      0.20297030	     -0.05377079	      0.69531650	      0.18735720	     -0.67217251	      5.07783044	      1.38936604	      0.00000000	      0.00000000	      0.00000000	      0.00000000	      0.00000000	     71.89221927	    -15.61811216	     13.38493524	     35.53928133	     51.71767595	      0.00000000	      5.00000014	     69.99367241	     -6.57204369	     15.30316542	     35.96739815	     51.87185950	      0.00000000	      5.00000014
      7.74200000	    -50.64711656	     -5.18244849	      3.32860158	     -0.37162154	      1.11630621	      0.05001693	     97.98753896	     -8.05706926	     -7.91236605	     64.49208480	      1.12559922	      7.68042332	      5.39981686	      0.00000000	    103.40227411	     -7.18792139	      5.32633511	    106.23295202	      1.85411479	     15.93387245	     13.46751022	      0.00000000	     -0.09293828	      0.46902804	      0.24609682	     -0.17259567	      0.62380730	      0.26147787	     -0.15268829	      1.14039478	      0.26147787	     -0.10621916	      1.14039478	      0.21533471	     -0.08630248	      0.95644199	      0.19995366	     -0.05310493	      0.72652444	      0.18457261	     -0.66384882	      5.30573903	      1.36871666	      0.00000000	      0.00000000	      0.00000000	      0.00000000	      0.00000000	     71.94255348	    -15.58035595	     13.35274406	     35.47185228	     51.76525571	      0.00000000	      5.00000014	     69.93954672	     -6.65312471	     15.62772791	     36.00616245	     51.96861216	      0.00000000	      5.00000014
      7.75000000	    -50.64274011	     -4.97101971	      3.66489829	     -0.37127399	      1.11636437	      0.04952588	     96.99716340	     -8.26924088	     -7.86951273	     63.13177841	      1.10185740	      7.24859259	      5.48416625	      0.00000000	    104.22653650	     -6.86184956	      5.17245879	    107.30136300	      1.87276208	     16.25581644	     13.27409535	      0.00000000	     -0.09360446	      0.43833412	      0.16877202	     -0.17383284	      0.58298438	      0.17932027	     -0.15378276	      1.06576558	      0.17932027	     -0.10698053	      1.06576558	      0.14767552	     -0.08692110	      0.89385094	      0.13712727	     -0.05348559	      0.67897955	      0.12657902	     -0.66860727	      4.95852322	      0.93865936	      0.00000000	      0.00000000	      0.00000000	      0.00000000	      0.00000000	     71.84281178	    -15.50090996	     13.38660295	     35.50868797	     51.77229875	      0.00000000	      5.00000014	     69.93331131	     -6.75130291	     15.69095010	     35.98940484	     51.98033171	      0.00000000	      5.00000014
      7.75800000	    -50.61736749	     -5.06379304	      3.74707522	     -0.37089730	      1.11638359	      0.04911832	     95.91261833	     -8.25482314	     -8.13652501	     61.74020196	      1.07756981	      6.71900445	      5.82806092	      0.00000000	    105.13981654	     -6.73250344	      5.31824437	    108.43582161	      1.89256211	     16.79124349	     12.85518578	      0.00000000	     -0.09317053	      0.45073431	      0.14395923	     -0.17302699	      0.59947663	      0.15295668	     -0.15306986	      1.09591540	      0.15295668	     -0.10648460	      1.09591540	      0.12596433	     -0.08651815	      0.91913741	      0.11696688	     -0.05323764	      0.69818745	      0.10796942	     -0.66550777	      5.09879667	      0.80065805	      0.00000000	      0.00000000	      0.00000000	      0.00000000	      0.00000000	     71.86020454	    -15.46754708	     13.37102141	     35.42504554	     51.81228290	      0.00000000	      5.00000014	     69.88072827	     -6.85696205	     16.04557984	     36.00732262	     52.07150128	      0.00000000	      5.00000014
      7.76700000	    -50.59508897	     -4.89739016	      4.08585895	     -0.37050685	      1.11639938	      0.04855862	     94.93774245	     -8.46278321	     -8.06751107	     60.53004395	      1.05644856	      6.25104704	      5.94020985	      0.00000000	    105.97010151	     -6.42404436	      5.10773182	    109.45200008	      1.91029777	     17.16617725	     12.57998351	      0.00000000	     -0.09301922	      0.42585888	      0.06813711	     -0.17274599	      0.56639231	      0.07239568	     -0.15282127	      1.03543328	      0.07239568	     -0.10631167	      1.03543328	      0.05961997	     -0.08637765	      0.86841142	      0.05536140	     -0.05315118	      0.65965540	      0.05110283	     -0.66442698	      4.81740080	      0.37895817	      0.00000000	      0.00000000	      0.00000000	      0.00000000	      0.00000000	     71.75805557	    -15.41499820	     13.39887563	     35.43567608	     51.82234800	      0.00000000	      5.00000014	     69.84975637	     -6.94899037	     16.14877079	     35.97047234	     52.09200024	      0.00000000	      5.00000014
      7.77500000	    -50.55606137	     -4.78239104	      4.37641658	     -0.37008647	      1.11637885	      0.04798173	     93.94392258	     -8.62619792	     -8.03964579	     59.34765411	      1.03581197	      5.71230605	      6.12037861	      0.00000000	    106.80023346	     -6.14787628	      4.93489082	    110.45852327	      1.92786492	     17.63703606	     12.22692163	      0.00000000	     -0.09289660	      0.40951142	      0.00392666	     -0.17251827	      0.54465019	      0.00417208	     -0.15261982	      0.99568607	      0.00417208	     -0.10617152	      0.99568607	      0.00343583	     -0.08626378	      0.83507569	      0.00319041	     -0.05308112	      0.63433319	      0.00294500	     -0.66355111	      4.63247510	      0.02183891	      0.00000000	      0.00000000	      0.00000000	      0.00000000	      0.00000000	     71.67206294	    -15.36934494	     13.39909991	     35.40361098	     51.82971093	      0.00000000	      5.00000014	     69.80669157	     -7.03582849	     16.29391211	     35.92493520	     52.11986938	      0.00000000	      5.00000014
      7.78300000	    -50.50151247	     -4.71020884	      4.64934745	     -0.36962606	      1.11634756	      0.04751721	     92.95846568	     -8.76191676	     -8.03913082	     58.25903656	      1.01681201	      5.17551531	      6.31965407	      0.00000000	    107.62531605	     -5.91180780	      4.77400310	    111.41929596	      1.94463356	     18.10956975	     11.86691315	      0.00000000	     -0.09401301	      0.39596856	     -0.05619089	     -0.17459156	      0.52663819	     -0.05970282	     -0.15445398	      0.96275796	     -0.05970282	     -0.10744747	      0.96275796	     -0.04916703	     -0.08730048	      0.80745909	     -0.04565510	     -0.05371903	      0.61335530	     -0.04214317	     -0.67152554	      4.47927555	     -0.31251686	      0.00000000	      0.00000000	      0.00000000	      0.00000000	      0.00000000	     71.56964247	    -15.34338702	     13.38544000	     35.33905601	     51.83503521	      0.00000000	      5.00000014	     69.76309175	     -7.10974505	     16.45204308	     35.87581904	     52.14939619	      0.00000000	      5.00000014
      7.79200000	    -50.42555233	     -4.88514936	      4.74479707	     -0.36914584	      1.11616753	      0.04686698	     91.91885976	     -8.77778545	     -8.36457265	     57.21397237	      0.99857220	      4.60295804	      6.82004378	      0.00000000	    108.53014860	     -5.74619875	      4.82183414	    112.44448109	      1.96252642	     18.63842278	     11.18939565	      0.00000000	     -0.09217707	      0.42033203	     -0.07731931	     -0.17118203	      0.55904160	     -0.08215177	     -0.15143770	      1.02199529	     -0.08215177	     -0.10534917	      1.02199529	     -0.06765440	     -0.08559562	      0.85714107	     -0.06282194	     -0.05266998	      0.65109431	     -0.05798949	     -0.65841156	      4.75487995	     -0.43002683	      0.00000000	      0.00000000	      0.00000000	      0.00000000	      0.00000000	     71.58461956	    -15.35363775	     13.33011617	     35.13484221	     51.88661176	      0.00000000	      5.00000014	     69.70899996	     -7.19475953	     16.97366491	     35.80543010	     52.28093677	      0.00000000	      5.00000014
